<?xml version="1.0" standalone="no"?>
<!DOCTYPE svg PUBLIC "-//W3C//DTD SVG 20010904//EN"
 "http://www.w3.org/TR/2001/REC-SVG-20010904/DTD/svg10.dtd">
<svg version="1.0" xmlns="http://www.w3.org/2000/svg"
 width="619.000000pt" height="619.000000pt" viewBox="0 0 619.000000 619.000000"
 preserveAspectRatio="xMidYMid meet">
<metadata>
Created by potrace 1.11, written by Peter Selinger 2001-2013
</metadata>
<g transform="translate(0.000000,619.000000) scale(0.100000,-0.100000)"
fill="#000000" stroke="none">
<path d="M2989 6175 c-98 -35 -180 -104 -231 -194 -18 -31 -80 -157 -139 -281
-108 -230 -157 -334 -235 -498 -24 -51 -59 -125 -78 -165 -19 -39 -57 -121
-86 -182 -53 -112 -100 -211 -169 -357 -21 -46 -62 -132 -91 -193 -29 -60 -65
-137 -80 -170 -15 -33 -56 -118 -90 -190 -34 -71 -75 -157 -90 -190 -27 -59
-67 -144 -170 -360 -29 -60 -67 -141 -85 -180 -18 -38 -56 -119 -85 -180 -79
-165 -126 -266 -250 -530 -114 -243 -211 -446 -220 -462 -5 -10 -23 -47 -39
-83 -16 -36 -55 -119 -86 -185 -176 -370 -176 -370 -181 -486 -4 -110 10 -175
58 -253 59 -97 154 -163 280 -195 69 -18 122 -19 785 -19 392 0 716 -3 721 -6
5 -3 9 -150 9 -328 0 -353 2 -365 59 -421 65 -65 35 -62 644 -64 367 -1 567 2
590 9 53 16 87 44 117 96 l28 47 1 328 c0 180 4 330 7 333 3 3 296 6 652 6
520 0 659 3 708 14 222 51 357 217 354 437 -1 90 -26 174 -102 332 -81 169
-146 305 -230 485 -40 85 -102 217 -139 294 -36 76 -66 139 -66 141 0 1 -35
76 -79 166 -43 90 -92 193 -108 229 -39 83 -281 595 -340 720 -25 52 -63 132
-84 178 -22 45 -56 119 -78 165 -21 45 -63 134 -93 197 -30 63 -64 135 -76
160 -11 25 -50 108 -87 185 -37 77 -82 172 -100 210 -47 101 -105 223 -170
360 -31 66 -68 145 -82 175 -14 30 -61 129 -104 219 -44 90 -79 165 -79 167 0
2 -38 81 -84 176 -100 205 -148 266 -252 318 -57 29 -78 35 -143 36 -42 1 -92
-4 -112 -11z"/>
</g>
</svg>
