<?xml version="1.0" encoding="UTF-8" standalone="no"?>
<svg
   xmlns:dc="http://purl.org/dc/elements/1.1/"
   xmlns:cc="http://creativecommons.org/ns#"
   xmlns:rdf="http://www.w3.org/1999/02/22-rdf-syntax-ns#"
   xmlns:svg="http://www.w3.org/2000/svg"
   xmlns="http://www.w3.org/2000/svg"
   xmlns:sodipodi="http://sodipodi.sourceforge.net/DTD/sodipodi-0.dtd"
   xmlns:inkscape="http://www.inkscape.org/namespaces/inkscape"
   id="SVGRoot"
   viewBox="0 0 268.96002 62.270004"
   version="1.1"
   sodipodi:docname="gambero.svg"
   inkscape:version="0.91 r13725"
   width="268.96002"
   height="62.27">
  <metadata
     id="metadata206">
    <rdf:RDF>
      <cc:Work
         rdf:about="">
        <dc:format>image/svg+xml</dc:format>
        <dc:type
           rdf:resource="http://purl.org/dc/dcmitype/StillImage" />
        <dc:title>logo_gambero</dc:title>
      </cc:Work>
    </rdf:RDF>
  </metadata>
  <sodipodi:namedview
     pagecolor="#ffffff"
     bordercolor="#666666"
     borderopacity="1"
     objecttolerance="10"
     gridtolerance="10"
     guidetolerance="10"
     inkscape:pageopacity="0"
     inkscape:pageshadow="2"
     inkscape:window-width="1024"
     inkscape:window-height="719"
     id="namedview204"
     showgrid="false"
     inkscape:zoom="1.8171822"
     inkscape:cx="75.607717"
     inkscape:cy="-27.361041"
     inkscape:window-x="0"
     inkscape:window-y="25"
     inkscape:window-maximized="1"
     inkscape:current-layer="SVGRoot" />
  <defs
     id="defs111">
    <style
       id="style109">.cls-1,.cls-4{isolation:isolate;font-family:Futura-Medium, Futura;font-weight:500;}.cls-1{font-size:44px;}.cls-2{letter-spacing:-0.1em;}.cls-3{letter-spacing:-0.01em;}.cls-4{font-size:15.7px;fill:#0097bf;}.cls-5{letter-spacing:0.01em;}.cls-6,.cls-7,.cls-8{fill:#ff4c22;}.cls-6{stroke:#0078a3;}.cls-6,.cls-8{stroke-miterlimit:10;}.cls-8{stroke:#fff;stroke-width:0.5px;}.cls-9{fill:#fff;}</style>
  </defs>
  <title
     id="title113">logo_gambero</title>
  <g
     id="layer2"
     transform="translate(6.6036305,1.7781787)"
     inkscape:export-xdpi="90"
     inkscape:export-ydpi="90">
    <text
       class="cls-1"
       transform="translate(45.91,55.58)"
       id="text121"
       style="font-weight:500;font-size:44px;font-family:Futura-Medium, Futura;isolation:isolate">
      <tspan
         style="font-style:normal;font-variant:normal;font-weight:normal;font-stretch:normal;font-size:48px;line-height:0;font-family:'Spectral Light';-inkscape-font-specification:'Spectral Light, ';letter-spacing:-2.1400001px"
         id="tspan3926">ambe.ro</tspan>
    </text>
  </g>
  <g
     id="layer2-2"
     data-name="layer2"
     transform="translate(35.110235,1.3409261)"
     inkscape:export-xdpi="90"
     inkscape:export-ydpi="90">
    <text
       class="cls-4"
       id="text128"
       x="200.02167"
       y="26.695173"
       style="font-weight:500;font-size:15.69999981px;font-family:Futura-Medium, Futura;isolation:isolate;fill:#0097bf">
      <tspan
         style="font-style:normal;font-variant:normal;font-weight:normal;font-stretch:normal;font-family:'Spectral Light';-inkscape-font-specification:'Spectral Light, '"
         id="tspan108">b</tspan>
      <tspan
         class="cls-5"
         x="209.43167"
         y="26.695173"
         id="tspan124"
         style="font-style:normal;font-variant:normal;font-weight:normal;font-stretch:normal;font-family:'Spectral Light';-inkscape-font-specification:'Spectral Light, ';letter-spacing:0.01em">et</tspan>
      <tspan
         x="222.69167"
         y="26.695173"
         id="tspan126"
         style="font-style:normal;font-variant:normal;font-weight:normal;font-stretch:normal;font-family:'Spectral Light';-inkscape-font-specification:'Spectral Light, '">a</tspan>
    </text>
  </g>
  <g
     id="g146"
     transform="translate(7.153933,2.4024223)"
     inkscape:export-xdpi="90"
     inkscape:export-ydpi="90">
    <path
       transform="translate(-9.72,-8.67)"
       id="path131"
       d="M 35.82,54.58"
       class="cls-6"
       inkscape:connector-curvature="0"
       style="fill:#ff4c22;stroke:#0078a3;stroke-miterlimit:10" />
    <path
       transform="translate(-9.72,-8.67)"
       id="path133"
       d="M 47.32,20.88"
       inkscape:connector-curvature="0" />
    <path
       id="path135"
       transform="translate(-9.72,-8.67)"
       d="m 55.42,23.18 a 2.8,2.8 0 0 0 1.2,-0.1 4.33,4.33 0 0 0 1.2,-0.5 4.23,4.23 0 0 0 0.7,-0.5 l 1,-1 a 14.34,14.34 0 0 1 -2.3,1.4 c -0.8,0.2 -2,0.2 -1.5,0.1 0.5,-0.1 1.5,-1.2 1.5,-1.2 a 5.86,5.86 0 0 1 1.1,-0.9 14.78,14.78 0 0 1 2.1,-1.3 25.43,25.43 0 0 0 -2.8,1.6 17.41,17.41 0 0 0 -1.4,1.2 1.82,1.82 0 0 1 -1.3,0.3 7.53,7.53 0 0 0 2.5,-2.5 8,8 0 0 1 -4.2,2.1 4.1,4.1 0 0 1 -1.1,0.1 22.24,22.24 0 0 0 -2.5,1.1 5.3,5.3 0 0 0 -3,3.6 4.18,4.18 0 0 1 -0.4,1 c 2.9,-0.9 6.1,-1.8 6.1,-1.8 a 3.69,3.69 0 0 0 2.4,-1.9 15.92,15.92 0 0 0 4.3,-0.6 16.89,16.89 0 0 1 -3.8,0.1 c -0.1,0 0.2,-0.3 0.2,-0.3 z"
       class="cls-7"
       inkscape:connector-curvature="0"
       style="fill:#ff4c22" />
    <path
       transform="translate(-9.72,-8.67)"
       id="path137"
       d="m 33.72,28.78 c -0.1,-0.4 -2.6,-8.5 -0.2,-11.7 0.2,-0.2 0.3,-0.4 0.5,-0.5 l -1.4,0 a 20.17,20.17 0 0 0 -12.13,3.85 l 0,0.17 c 0.42,2.86 1.53,4.89 3.28,6.06 a 3.84,3.84 0 0 1 1.72,3.25 l 0,0.22 a 4.88,4.88 0 0 0 1.77,3.67 l 0.08,0.07 a 3.83,3.83 0 0 1 0.59,-0.49 9.12,9.12 0 0 1 6.8,-2.3 l 0.1,0 a 9.86,9.86 0 0 1 -1.11,-2.3 z"
       class="cls-7"
       inkscape:connector-curvature="0"
       style="fill:#ff4c22" />
    <path
       transform="translate(-9.72,-8.67)"
       id="path139"
       d="m 15.72,50.78 a 3.36,3.36 0 0 1 3.1,-0.8 c 0.2,0.1 3.9,1.1 5.6,-3.7 a 16.62,16.62 0 0 1 -0.6,-5.5 l 0,-0.3 a 5.4,5.4 0 0 1 -2.3,-1.4 4.62,4.62 0 0 0 -3.7,-1.1 c -2.8,0.5 -5.6,-0.7 -7.6,-1.9 a 21.22,21.22 0 0 0 -0.5,5 21.51,21.51 0 0 0 3.1,11 5.07,5.07 0 0 0 2.9,-1.3 z"
       class="cls-7"
       inkscape:connector-curvature="0"
       style="fill:#ff4c22" />
    <path
       transform="translate(-9.72,-8.67)"
       id="path141"
       d="m 10.48,35.65 c 2.67,1.6 5.11,2.22 7.25,1.83 a 5.16,5.16 0 0 1 4.12,1.22 l 0.17,0.2 A 6.52,6.52 0 0 0 24,40 l 0,0 a 12.17,12.17 0 0 1 2.89,-5.84 5,5 0 0 1 -1.9,-4.3 3.34,3.34 0 0 0 -1.5,-2.8 c -2.4,-1.6 -3.2,-4.4 -3.5,-6.4 A 27,27 0 0 0 10.41,35.6 Z"
       class="cls-7"
       inkscape:connector-curvature="0"
       style="fill:#ff4c22" />
    <path
       transform="translate(-9.72,-8.67)"
       id="path143"
       d="m 29.22,58 a 3.4,3.4 0 0 1 1.1,-3 3.52,3.52 0 0 0 1.1,-1.5 L 30.12,53 a 9.49,9.49 0 0 1 -5.5,-5.9 c -2,4.7 -5.9,3.5 -6,3.5 a 2.61,2.61 0 0 0 -2.6,0.7 7.09,7.09 0 0 1 -3,1.5 25.53,25.53 0 0 0 14.2,10.7 7,7 0 0 0 2,-5.5 z"
       class="cls-7"
       inkscape:connector-curvature="0"
       style="fill:#ff4c22" />
    <path
       transform="translate(-9.72,-8.67)"
       id="path145"
       d="m 29.22,58 a 3.4,3.4 0 0 1 1.1,-3 3.52,3.52 0 0 0 1.1,-1.5 L 30.12,53 a 9.49,9.49 0 0 1 -5.5,-5.9 c -2,4.7 -5.9,3.5 -6,3.5 a 2.61,2.61 0 0 0 -2.6,0.7 7.09,7.09 0 0 1 -3,1.5 25.53,25.53 0 0 0 14.2,10.7 7,7 0 0 0 2,-5.5 z"
       class="cls-7"
       inkscape:connector-curvature="0"
       style="fill:#ff4c22" />
    <path
       transform="translate(-9.72,-8.67)"
       id="path147"
       d="m 29.22,58 a 3.4,3.4 0 0 1 1.1,-3 3.52,3.52 0 0 0 1.1,-1.5 L 30.12,53 a 9.49,9.49 0 0 1 -5.5,-5.9 c -2,4.7 -5.9,3.5 -6,3.5 a 2.61,2.61 0 0 0 -2.6,0.7 7.09,7.09 0 0 1 -3,1.5 25.53,25.53 0 0 0 14.2,10.7 7,7 0 0 0 2,-5.5 z"
       class="cls-7"
       inkscape:connector-curvature="0"
       style="fill:#ff4c22" />
    <path
       id="path149"
       transform="translate(-9.72,-8.67)"
       d="m 61.22,29.43 a 6.73,6.73 0 0 1 -3.69,-2.1 5.3,5.3 0 0 0 -3.43,-1.67 2.81,2.81 0 0 0 -1.3,0.07 0.31,0.31 0 1 1 -0.17,-0.59 6.36,6.36 0 0 1 1.56,-0.14 5.91,5.91 0 0 1 3.81,1.82 5.94,5.94 0 0 0 3.31,1.9 4,4 0 0 0 3.13,-1 c 1.67,-1.56 1.14,-4.3 -0.34,-6 a 15,15 0 0 0 -6.87,-4.39 32,32 0 0 0 -5.45,-1 28.28,28.28 0 0 1 -7.23,-1.68 c -0.91,-0.45 -1.89,-1 -2.72,-1.5 -0.53,-0.33 -1,-0.72 -1.56,-1.07 -0.56,-0.35 -1,-0.7 -1.44,-1.06 a 26.21,26.21 0 0 0 -3.21,-2 l -0.09,0 -0.29,-0.16 A 0.64,0.64 0 0 1 35,8.67 a 2,2 0 0 0 0.29,0.1 l 0.4,0.17 0.81,0.37 a 12.7,12.7 0 0 1 1.67,0.89 l 1.67,1.06 c 0.65,0.42 1.33,0.78 2,1.19 a 18.55,18.55 0 0 0 1.95,1.08 25.91,25.91 0 0 0 7.28,1.93 28.22,28.22 0 0 1 6.31,1.24 15.46,15.46 0 0 1 7.09,4.58 c 1.61,1.91 2.18,5 0.31,6.84 a 4.17,4.17 0 0 1 -3.56,1.31 z"
       class="cls-7"
       inkscape:connector-curvature="0"
       style="fill:#ff4c22" />
    <path
       id="path151"
       transform="translate(-9.72,-8.67)"
       d="m 62.45,27.41 a 7.14,7.14 0 0 1 -3.22,-1.32 5.8,5.8 0 0 0 -4.1,-0.86 5,5 0 0 0 -1.43,0.38 c -0.17,0.05 -0.32,0 -0.38,-0.14 -0.06,-0.14 0,-0.32 0.13,-0.38 a 3.68,3.68 0 0 1 1.6,-0.44 6,6 0 0 1 4.48,1 6.45,6.45 0 0 0 4,1.18 4.37,4.37 0 0 0 3.13,-1.83 c 1.33,-2.09 0.08,-4.85 -1.83,-6.32 a 16.8,16.8 0 0 0 -8.37,-2.88 29.53,29.53 0 0 0 -6,0.25 31,31 0 0 1 -4.17,0.26 L 44,16.23 a 23.93,23.93 0 0 1 -6.46,-2 c -1.1,-0.44 -2.18,-0.94 -3.31,-1.34 A 9.39,9.39 0 0 0 32,12.32 a 1,1 0 0 1 0.39,0 l 0.56,0.07 a 14.27,14.27 0 0 1 1.81,0.5 c 1.23,0.38 2.4,0.91 3.6,1.38 0.58,0.22 1.16,0.43 1.75,0.63 l 0.08,0 a 21.47,21.47 0 0 0 7.1,0.77 c 1.06,0 2,-0.13 3.11,-0.23 a 30.25,30.25 0 0 1 6.19,-0.24 17.06,17.06 0 0 1 8.67,3 c 2.22,1.59 3.59,4.68 2.05,7.15 a 4.59,4.59 0 0 1 -3.52,2.13 c -0.53,-0.04 -0.94,-0.02 -1.34,-0.07 z"
       class="cls-7"
       inkscape:connector-curvature="0"
       style="fill:#ff4c22" />
    <path
       transform="translate(-9.72,-8.67)"
       id="path153"
       d="M 20.12,20.68"
       class="cls-8"
       inkscape:connector-curvature="0"
       style="fill:#ff4c22;stroke:#ffffff;stroke-width:0.5px;stroke-miterlimit:10" />
    <path
       transform="translate(-9.72,-8.67)"
       id="path155"
       d="M 41.45,39.64"
       class="cls-7"
       inkscape:connector-curvature="0"
       style="fill:#ff4c22" />
    <path
       transform="translate(-9.72,-8.67)"
       id="path157"
       d="M 42.49,39.68"
       class="cls-7"
       inkscape:connector-curvature="0"
       style="fill:#ff4c22" />
    <path
       transform="translate(-9.72,-8.67)"
       id="path159"
       d="M 40.17,39.62"
       class="cls-7"
       inkscape:connector-curvature="0"
       style="fill:#ff4c22" />
    <path
       transform="translate(-9.72,-8.67)"
       id="path161"
       d="M 39.33,39.63"
       class="cls-7"
       inkscape:connector-curvature="0"
       style="fill:#ff4c22" />
    <path
       transform="translate(-9.72,-8.67)"
       id="path163"
       d="M 43.6,39.76"
       class="cls-7"
       inkscape:connector-curvature="0"
       style="fill:#ff4c22" />
    <path
       transform="translate(-9.72,-8.67)"
       id="path165"
       d="m 40.28,39.11 a 44.18,44.18 0 0 1 4.83,0.3 31.29,31.29 0 0 1 7.12,1.52 19.59,19.59 0 0 0 -6,-1.88 c -3.29,-0.56 -6.2,-0.48 -7.4,0.1 0.45,-0.02 0.92,-0.04 1.45,-0.04 z"
       class="cls-7"
       inkscape:connector-curvature="0"
       style="fill:#ff4c22" />
    <path
       transform="translate(-9.72,-8.67)"
       id="path167"
       d="M 38.36,39.68"
       class="cls-7"
       inkscape:connector-curvature="0"
       style="fill:#ff4c22" />
    <ellipse
       id="ellipse169"
       transform="matrix(0.00436331,-0.99999048,0.99999048,0.00436331,-7.0799998,78.9)"
       ry="8.4499998"
       rx="1.38"
       cy="42.459999"
       cx="45.290001"
       class="cls-7"
       style="fill:#ff4c22" />
    <path
       transform="translate(-9.72,-8.67)"
       id="path171"
       d="m 54,42.62 a 0.64,0.64 0 0 1 -0.13,0.24 c -0.45,0.5 -2.05,0.83 -4,1 a 3.39,3.39 0 0 0 -0.13,0.5 10.26,10.26 0 0 1 -1.2,2.7 c -0.8,1 -1.4,1.8 -1.9,2.5 a 6,6 0 0 1 0.3,0.7 A 2.81,2.81 0 0 0 49,52 6.55,6.55 0 0 1 52.6,54.1 21.27,21.27 0 0 0 54.3,44.9 4.13,4.13 0 0 0 54,42.62 Z"
       class="cls-7"
       inkscape:connector-curvature="0"
       style="fill:#ff4c22" />
    <path
       transform="translate(-9.72,-8.67)"
       id="path173"
       d="m 45.36,40.67 a 37.8,37.8 0 0 1 7.37,0.8 27.57,27.57 0 0 0 -7.35,-1.65 c -4.89,-0.55 -9.09,-0.28 -9.37,0.6 -0.11,0.33 0.32,0.69 1.14,1 1.35,-0.59 5.02,-0.82 8.21,-0.75 z"
       class="cls-7"
       inkscape:connector-curvature="0"
       style="fill:#ff4c22" />
    <path
       transform="translate(-9.72,-8.67)"
       id="path175"
       d="m 42.16,28 c 0.25,-0.05 0.84,0.39 1.18,0.6 a 23.21,23.21 0 0 1 5.82,6 c 0.3,0.42 0.74,1.1 1,1.54 -0.1,0 -0.25,-0.22 -0.44,-0.46 l -0.65,-0.82 a 29.9,29.9 0 0 0 -3,-3.4 5.43,5.43 0 0 0 -2.28,-1.23 5.61,5.61 0 0 1 -1,-0.38 5.89,5.89 0 0 1 -0.63,-0.4 c -0.09,-0.07 -0.67,-0.61 -0.69,-0.59 0.22,-0.27 0.42,-0.59 0.66,-0.83 A 0.09,0.09 0 0 1 42.16,28 Z"
       class="cls-7"
       inkscape:connector-curvature="0"
       style="fill:#ff4c22" />
    <path
       transform="translate(-9.72,-8.67)"
       id="path177"
       d="m 45.1,27.5 c 0.23,0 0.63,0.31 0.87,0.47 a 11.42,11.42 0 0 1 3.46,4.41 c 0.15,0.29 0.35,0.78 0.47,1.09 -0.1,0 -0.16,-0.16 -0.26,-0.34 L 49.3,32.54 a 14.39,14.39 0 0 0 -1.74,-2.47 3.75,3.75 0 0 0 -1.66,-1 4.39,4.39 0 0 1 -0.8,-0.31 5.14,5.14 0 0 1 -0.44,-0.31 6,6 0 0 0 -0.45,-0.44 c 0.27,-0.17 0.54,-0.38 0.82,-0.52 z"
       class="cls-7"
       inkscape:connector-curvature="0"
       style="fill:#ff4c22" />
    <path
       transform="translate(-9.72,-8.67)"
       id="path179"
       d="m 47.42,36.84 c -0.1,0.06 -0.25,-0.21 -0.45,-0.46 L 46.32,35.57 A 28.67,28.67 0 0 0 43.22,32.2 5.41,5.41 0 0 0 40.86,31 5.78,5.78 0 0 1 39.8,30.64 5.87,5.87 0 0 1 39.15,30.25 C 39.06,30.19 38.5,29.68 38.44,29.68 a 10.4,10.4 0 0 1 0.72,-0.87 0.11,0.11 0 0 1 0.08,0 c 0.26,-0.06 0.87,0.37 1.22,0.57 a 22.12,22.12 0 0 1 5.94,5.94 c 0.3,0.4 0.74,1.08 1.02,1.52 z"
       class="cls-7"
       inkscape:connector-curvature="0"
       style="fill:#ff4c22" />
    <path
       transform="translate(-9.72,-8.67)"
       id="path181"
       d="m 42.13,37.1 c -0.1,0 -0.17,-0.2 -0.29,-0.42 -0.12,-0.22 -0.25,-0.49 -0.38,-0.72 a 21.13,21.13 0 0 0 -1.9,-3.08 4.4,4.4 0 0 0 -1.73,-1.26 3.54,3.54 0 0 1 -0.81,-0.43 3.34,3.34 0 0 1 -0.47,-0.4 c -0.06,-0.06 -0.44,-0.55 -0.47,-0.55 a 8.5,8.5 0 0 1 0.77,-0.57 l 0.07,0 c 0.23,0 0.66,0.42 0.9,0.63 a 16.08,16.08 0 0 1 3.77,5.48 c 0.16,0.35 0.41,0.94 0.54,1.32 z"
       class="cls-7"
       inkscape:connector-curvature="0"
       style="fill:#ff4c22" />
    <path
       transform="translate(-9.72,-8.67)"
       id="path183"
       d="m 33.92,17.25 c -2.2,2.9 0.3,11.1 0.3,11.2 a 6.74,6.74 0 0 0 1.2,2.4 26.35,26.35 0 0 0 7.6,-2.1 25.58,25.58 0 0 1 2.6,-0.9 8.43,8.43 0 0 0 0.6,-1.4 5.88,5.88 0 0 1 3.2,-3.8 A 6.22,6.22 0 0 1 51,22 l -0.2,0 -0.2,-0.8 0.2,0 2.9,-0.4 c 2.8,-0.6 3,-1 3,-1 a 71,71 0 0 1 -8.3,-0.4 l -4.1,-0.7 a 30.91,30.91 0 0 0 -6.1,-1.9 20.2,20.2 0 0 0 -3.3,-0.3 1.59,1.59 0 0 0 -0.98,0.75 z"
       class="cls-7"
       inkscape:connector-curvature="0"
       style="fill:#ff4c22" />
    <circle
       id="circle185"
       r="1.4"
       cy="13.11"
       cx="41.099998"
       class="cls-9"
       style="fill:#ffffff" />
    <circle
       id="circle187"
       r="1.3"
       cy="13.01"
       cx="41.400002" />
    <circle
       id="circle189"
       r="0.40000001"
       cy="12.61"
       cx="41.900002"
       class="cls-9"
       style="fill:#ffffff" />
    <path
       transform="translate(-9.72,-8.67)"
       id="path191"
       d="m 32,41.48 a 14.21,14.21 0 0 1 -2,1 c -0.58,0.21 -2.14,0.37 -3.69,0.76 a 3.07,3.07 0 0 1 -2,1.57 c -1.34,0.46 -2.62,0.27 -2.86,-0.44 -0.24,-0.71 0.64,-1.64 2,-2.1 a 4,4 0 0 1 1.94,-0.21 c 0.11,0 0.44,-0.21 0.55,-0.26 l 0.6,-0.24 a 7.55,7.55 0 0 1 1.24,-0.33 11.57,11.57 0 0 1 2.94,0 6.43,6.43 0 0 1 1.28,0.25 z"
       class="cls-7"
       inkscape:connector-curvature="0"
       style="fill:#ff4c22" />
    <path
       transform="translate(-9.72,-8.67)"
       id="path193"
       d="m 33.27,47.89 c -0.58,0.62 -2.63,1.67 -4.1,3.21 a 3.33,3.33 0 0 1 -0.26,1.82 c -0.56,1.3 -1.73,2 -2.6,1.67 -0.87,-0.33 -1.13,-1.74 -0.56,-3 0.57,-1.26 1.6,-2 2.46,-1.72 a 10.41,10.41 0 0 0 0.67,-1 9.58,9.58 0 0 1 0.81,-1 5.16,5.16 0 0 1 1.46,-1.13 7.21,7.21 0 0 1 3.65,-0.9 14.83,14.83 0 0 1 -1.53,2.05 z"
       class="cls-7"
       inkscape:connector-curvature="0"
       style="fill:#ff4c22" />
    <path
       transform="translate(-9.72,-8.67)"
       id="path195"
       d="m 36.83,51.71 c -0.11,0.32 -0.22,0.65 -0.32,1 A 3,3 0 0 1 37,54.9 2.5,2.5 0 0 1 35.32,57.24 l -0.15,0 -0.17,0 C 34.06,57.13 33.42,55.9 33.58,54.49 a 3,3 0 0 1 1,-2 7.92,7.92 0 0 1 0.28,-2.05 7.13,7.13 0 0 1 0.91,-1.78 5.07,5.07 0 0 1 1.83,-1.86 1,1 0 0 1 0,0.34 q 0,0.31 0,0.63 a 10.71,10.71 0 0 1 -0.07,1.6 12.07,12.07 0 0 1 -0.7,2.34 z"
       class="cls-7"
       inkscape:connector-curvature="0"
       style="fill:#ff4c22" />
    <path
       transform="translate(-9.72,-8.67)"
       id="path197"
       d="m 35.35,57.24 -0.12,0.13 0,-0.11 z"
       class="cls-7"
       inkscape:connector-curvature="0"
       style="fill:#ff4c22" />
    <path
       transform="translate(-9.72,-8.67)"
       id="path199"
       d="m 43,60.28 a 3.4,3.4 0 0 1 -1.9,-2.8 4.68,4.68 0 0 0 -2,-3.3 16,16 0 0 1 -7.2,-0.6 9.62,9.62 0 0 1 -1.2,1.8 2.86,2.86 0 0 0 -0.9,2.6 8.28,8.28 0 0 1 -1.9,5.8 23.31,23.31 0 0 0 5.9,0.8 24.06,24.06 0 0 0 11.2,-2.5 8.13,8.13 0 0 0 -2,-1.8 z"
       class="cls-7"
       inkscape:connector-curvature="0"
       style="fill:#ff4c22" />
    <path
       transform="translate(-9.72,-8.67)"
       id="path201"
       d="m 48.92,52.48 a 3.35,3.35 0 0 1 -2.5,-2 l -0.2,-0.4 a 10.2,10.2 0 0 1 -1.68,1.72 2.34,2.34 0 0 0 -1.94,-1 C 42.21,49.7 42,48.66 41.77,48.24 a 11.2,11.2 0 0 0 -1.2,-1.65 c 0,0 -0.13,0.34 -0.14,0.39 -0.01,0.05 -0.07,0.27 -0.1,0.41 a 5.22,5.22 0 0 0 0,0.79 6.42,6.42 0 0 0 0.16,1.75 5.83,5.83 0 0 0 1,2 2.82,2.82 0 0 0 0.16,1.57 l 0,0 a 15.21,15.21 0 0 1 -1.78,0.63 5.25,5.25 0 0 1 1.78,3.32 l 0,0 a 3,3 0 0 0 1.5,2.35 l 0,0 0.12,0.06 a 8.64,8.64 0 0 1 2.09,1.86 19.54,19.54 0 0 0 3.86,-2.82 14,14 0 0 0 3,-4.2 4.93,4.93 0 0 0 -3.3,-2.22 z"
       class="cls-7"
       inkscape:connector-curvature="0"
       style="fill:#ff4c22" />
  </g>
</svg>
