<?xml version="1.0" encoding="utf-8"?>
<!-- Generator: Adobe Illustrator 19.0.0, SVG Export Plug-In . SVG Version: 6.00 Build 0)  -->
<svg version="1.1" id="Layer_1" xmlns="http://www.w3.org/2000/svg" xmlns:xlink="http://www.w3.org/1999/xlink" x="0px" y="0px"
	 viewBox="0 0 222 108" style="enable-background:new 0 0 222 108;" xml:space="preserve">
<style type="text/css">
	.st0{fill:#FF4C22;}
	.st1{fill:#FFFFFF;}
	.st2{fill:none;}
	.st3{font-family:'Nunito-Bold';}
	.st4{font-size:22px;}
	.st5{fill:#30ABCB;}
	.st6{font-size:12px;}
</style>
<g>
	<path class="st0" d="M78.6,42.5c0.3,0,0.6,0,0.9-0.1c0.3-0.1,0.6-0.2,0.9-0.4c0.2-0.1,0.4-0.2,0.5-0.4l0.8-0.8
		c-0.5,0.4-1.1,0.8-1.7,1.1c-0.6,0.1-1.5,0.1-1.1,0.1c0.4-0.1,1.1-0.9,1.1-0.9c0.2-0.3,0.5-0.5,0.8-0.7c0.5-0.4,1-0.7,1.6-1
		c-0.7,0.4-1.4,0.8-2.1,1.2c-0.4,0.3-0.7,0.6-1,0.9c-0.3,0.2-0.6,0.3-1,0.2c0.8-0.5,1.4-1.1,1.9-1.9c-0.9,0.8-2,1.4-3.1,1.6
		c-0.3,0.1-0.6,0.1-0.8,0.1c-0.6,0.2-1.3,0.5-1.9,0.8c-1.1,0.5-2,1.5-2.2,2.7c-0.1,0.3-0.2,0.5-0.3,0.8c2.2-0.7,4.6-1.3,4.6-1.3
		c0.8-0.2,1.4-0.7,1.8-1.4c1.1,0,2.2-0.2,3.2-0.4c-0.9,0.1-1.9,0.2-2.8,0.1C78.4,42.7,78.6,42.5,78.6,42.5L78.6,42.5z M78.6,42.5"/>
	<path class="st0" d="M62.3,46.7c-0.1-0.3-2-6.4-0.2-8.8c0.2-0.1,0.2-0.3,0.4-0.4h-1.1c-3.3,0-6.5,1-9.1,2.9v0.1
		c0.3,2.1,1.1,3.7,2.5,4.5c0.8,0.5,1.3,1.5,1.3,2.4v0.2c0,1.1,0.5,2.1,1.3,2.8l0.1,0.1c0.1-0.1,0.3-0.3,0.4-0.4
		c1.4-1.2,3.2-1.9,5.1-1.7h0.1C62.8,47.9,62.5,47.3,62.3,46.7L62.3,46.7z M62.3,46.7"/>
	<path class="st0" d="M48.8,63.2c0.6-0.6,1.5-0.8,2.3-0.6c0.1,0.1,2.9,0.8,4.2-2.8c-0.4-1.3-0.5-2.7-0.5-4.1v-0.2
		c-0.7-0.2-1.2-0.6-1.7-1.1c-0.8-0.7-1.8-1-2.8-0.8c-2.1,0.4-4.2-0.5-5.7-1.4c-0.3,1.2-0.4,2.5-0.4,3.8c0,2.9,0.8,5.8,2.3,8.2
		C47.5,64.1,48.2,63.7,48.8,63.2L48.8,63.2z M48.8,63.2"/>
	<path class="st0" d="M44.9,51.8c2,1.2,3.8,1.7,5.4,1.4c1.1-0.2,2.2,0.2,3.1,0.9l0.1,0.1c0.4,0.4,0.9,0.6,1.5,0.8
		c0.3-1.6,1.1-3.1,2.2-4.4c-1-0.8-1.5-2-1.4-3.2c0-0.8-0.4-1.6-1.1-2.1c-1.8-1.2-2.4-3.3-2.6-4.8C48.4,43.4,45.9,47.4,44.9,51.8
		L44.9,51.8z M44.9,51.8"/>
	<path class="st0" d="M59,68.6c-0.1-0.8,0.2-1.7,0.8-2.2c0.4-0.3,0.7-0.7,0.8-1.1l-1-0.4c-2-0.8-3.5-2.4-4.1-4.4
		C54,64,51.1,63.1,51,63.1c-0.7-0.2-1.4,0-1.9,0.5c-0.6,0.6-1.4,0.9-2.2,1.1c2.5,3.9,6.3,6.7,10.7,8C58.5,71.6,59.1,70.1,59,68.6
		L59,68.6z M59,68.6"/>
	<path class="st0" d="M59,68.6c-0.1-0.8,0.2-1.7,0.8-2.2c0.4-0.3,0.7-0.7,0.8-1.1l-1-0.4c-2-0.8-3.5-2.4-4.1-4.4
		C54,64,51.1,63.1,51,63.1c-0.7-0.2-1.4,0-1.9,0.5c-0.6,0.6-1.4,0.9-2.2,1.1c2.5,3.9,6.3,6.7,10.7,8C58.5,71.6,59.1,70.1,59,68.6
		L59,68.6z M59,68.6"/>
	<path class="st0" d="M59,68.6c-0.1-0.8,0.2-1.7,0.8-2.2c0.4-0.3,0.7-0.7,0.8-1.1l-1-0.4c-2-0.8-3.5-2.4-4.1-4.4
		C54,64,51.1,63.1,51,63.1c-0.7-0.2-1.4,0-1.9,0.5c-0.6,0.6-1.4,0.9-2.2,1.1c2.5,3.9,6.3,6.7,10.7,8C58.5,71.6,59.1,70.1,59,68.6
		L59,68.6z M59,68.6"/>
	<path class="st0" d="M83,47.2c-1.1-0.2-2-0.8-2.8-1.6c-0.7-0.7-1.6-1.2-2.6-1.3c-0.3-0.1-0.7,0-1,0.1c-0.1,0.1-0.3,0-0.3-0.1
		c0-0.1,0.1-0.3,0.2-0.3c0.4-0.1,0.8-0.1,1.2-0.1c1.1,0.1,2.1,0.6,2.9,1.4c0.6,0.7,1.5,1.2,2.5,1.4c0.9,0.1,1.7-0.2,2.3-0.8
		c1.2-1.2,0.9-3.2-0.3-4.5c-1.4-1.6-3.2-2.7-5.2-3.3c-1.3-0.4-2.7-0.6-4.1-0.8c-1.9-0.2-3.7-0.6-5.4-1.3c-0.7-0.3-1.4-0.8-2-1.1
		c-0.4-0.2-0.8-0.5-1.2-0.8c-0.4-0.3-0.8-0.5-1.1-0.8c-0.8-0.6-1.6-1.1-2.4-1.5h-0.1l-0.2-0.1c-0.1,0-0.1-0.1-0.2-0.1
		c0.1,0,0.1,0.1,0.2,0.1l0.3,0.1l0.6,0.3c0.4,0.2,0.9,0.4,1.3,0.7l1.3,0.8c0.5,0.3,1,0.6,1.5,0.9c0.5,0.3,1,0.6,1.5,0.8
		c1.7,0.7,3.6,1.2,5.5,1.4c1.6,0.1,3.2,0.4,4.7,0.9c2.1,0.6,3.9,1.8,5.3,3.4c1.2,1.4,1.6,3.8,0.2,5.1C84.9,46.9,84,47.3,83,47.2
		L83,47.2z M83,47.2"/>
	<path class="st0" d="M83.9,45.7c-0.9-0.1-1.7-0.5-2.4-1c-0.9-0.6-2-0.8-3.1-0.6c-0.4,0-0.7,0.1-1.1,0.3c-0.1,0-0.2,0-0.3-0.1
		c0-0.1,0-0.2,0.1-0.3c0.4-0.2,0.8-0.3,1.2-0.3c1.2-0.2,2.4,0.1,3.4,0.8c0.9,0.6,1.9,0.9,3,0.9c0.9-0.1,1.8-0.6,2.3-1.4
		c1-1.6,0.1-3.6-1.4-4.7c-1.9-1.3-4-2-6.3-2.2c-1.5-0.1-3,0-4.5,0.2c-1,0.1-2.1,0.2-3.1,0.2L70,37.3c-1.7-0.3-3.3-0.8-4.8-1.5
		c-0.8-0.3-1.6-0.7-2.5-1c-0.5-0.2-1.1-0.4-1.7-0.4c0.1,0,0.2,0,0.3,0l0.4,0.1c0.5,0.1,0.9,0.2,1.4,0.4c0.9,0.3,1.8,0.7,2.7,1
		c0.4,0.2,0.9,0.3,1.3,0.5h0.1c1.7,0.5,3.5,0.7,5.3,0.6c0.8,0,1.5-0.1,2.3-0.2c1.5-0.2,3.1-0.3,4.6-0.2c2.3,0.1,4.6,0.9,6.5,2.2
		c1.7,1.2,2.7,3.5,1.5,5.4c-0.6,0.9-1.6,1.5-2.6,1.6C84.5,45.7,84.2,45.7,83.9,45.7L83.9,45.7z M83.9,45.7"/>
	<path class="st0" d="M67.3,54.4c1.2,0,2.4,0.1,3.6,0.2c1.8,0.2,3.6,0.6,5.3,1.1c-1.4-0.7-2.9-1.2-4.5-1.4c-2.5-0.4-4.6-0.4-5.5,0.1
		C66.5,54.5,66.9,54.4,67.3,54.4L67.3,54.4z M67.3,54.4"/>
	<path class="st0" d="M71,55.9c3.5,0,6.3,0.5,6.3,1.1c0,0.6-2.8,1-6.3,1c-3.5,0-6.3-0.5-6.3-1.1C64.7,56.4,67.5,55.9,71,55.9
		L71,55.9z M71,55.9"/>
	<path class="st0" d="M77.5,57.1c0,0.1-0.1,0.1-0.1,0.2c-0.3,0.4-1.5,0.6-3,0.8c0,0.1-0.1,0.2-0.1,0.4c-0.2,0.7-0.5,1.4-0.9,2
		c-0.6,0.8-1,1.4-1.4,1.9c0.1,0.2,0.2,0.3,0.2,0.5c0.3,0.7,0.8,1.2,1.5,1.3c1,0.2,2,0.8,2.7,1.6c0.9-2.2,1.4-4.5,1.3-6.9
		C77.9,58.2,77.8,57.6,77.5,57.1L77.5,57.1z M77.5,57.1"/>
	<path class="st0" d="M71.1,55.6c1.9,0,3.7,0.2,5.5,0.6c-1.8-0.7-3.6-1.1-5.5-1.2c-3.7-0.4-6.8-0.2-7,0.4c-0.1,0.2,0.2,0.5,0.9,0.8
		C65.9,55.7,68.7,55.6,71.1,55.6L71.1,55.6z M71.1,55.6"/>
	<path class="st0" d="M68.7,46.1c0.2,0,0.6,0.3,0.9,0.4c1.7,1.2,3.2,2.7,4.4,4.5c0.2,0.3,0.6,0.8,0.8,1.2c-0.1,0-0.2-0.2-0.3-0.3
		l-0.5-0.6c-0.7-0.9-1.4-1.8-2.2-2.5c-0.5-0.4-1.1-0.8-1.7-0.9c-0.3-0.1-0.5-0.2-0.8-0.3c-0.2-0.1-0.3-0.2-0.5-0.3
		c-0.1-0.1-0.5-0.5-0.5-0.4C68.3,46.5,68.5,46.3,68.7,46.1C68.6,46.1,68.7,46.1,68.7,46.1L68.7,46.1z M68.7,46.1"/>
	<path class="st0" d="M70.9,45.7c0.2,0,0.5,0.2,0.7,0.4c1.1,0.9,2,2,2.6,3.3c0.1,0.2,0.3,0.6,0.4,0.8c-0.1,0-0.1-0.1-0.2-0.3
		L74,49.5c-0.4-0.7-0.8-1.3-1.3-1.9c-0.3-0.4-0.8-0.6-1.2-0.8c-0.2-0.1-0.4-0.1-0.6-0.2c-0.1-0.1-0.2-0.2-0.3-0.2
		c-0.1-0.1-0.2-0.2-0.3-0.3C70.4,46,70.6,45.8,70.9,45.7L70.9,45.7z M70.9,45.7"/>
	<path class="st0" d="M72.6,52.7c-0.1,0-0.2-0.2-0.3-0.3l-0.5-0.6c-0.7-0.9-1.5-1.8-2.3-2.5c-0.5-0.4-1.1-0.8-1.8-0.9
		c-0.3-0.1-0.5-0.2-0.8-0.3c-0.2-0.1-0.3-0.2-0.5-0.3c-0.1,0-0.5-0.4-0.5-0.4c0.2-0.2,0.3-0.4,0.5-0.7c0,0,0,0,0.1,0
		c0.2,0,0.7,0.3,0.9,0.4c1.8,1.2,3.3,2.7,4.5,4.5C72.1,51.9,72.4,52.4,72.6,52.7L72.6,52.7z M72.6,52.7"/>
	<path class="st0" d="M68.6,52.9c-0.1,0-0.1-0.2-0.2-0.3s-0.2-0.4-0.3-0.5c-0.4-0.8-0.9-1.6-1.4-2.3c-0.3-0.4-0.8-0.7-1.3-0.9
		c-0.2-0.1-0.4-0.2-0.6-0.3c-0.1-0.1-0.2-0.2-0.4-0.3c0,0-0.3-0.4-0.4-0.4c0.2-0.2,0.4-0.3,0.6-0.4h0.1c0.2,0,0.5,0.3,0.7,0.5
		c1.2,1.2,2.2,2.6,2.8,4.1C68.4,52.2,68.5,52.6,68.6,52.9L68.6,52.9z M68.6,52.9"/>
	<path class="st0" d="M62.5,38c-1.6,2.2,0.2,8.3,0.2,8.4c0.2,0.7,0.5,1.3,0.9,1.8c2-0.2,3.9-0.8,5.7-1.6c0.6-0.3,1.3-0.5,1.9-0.7
		c0.2-0.3,0.3-0.7,0.5-1.1c0.3-1.3,1.2-2.3,2.4-2.9c0.4-0.2,0.8-0.4,1.2-0.5h-0.1L75,41h0.1l2.2-0.3c2.1-0.4,2.2-0.8,2.2-0.8
		c-2.1,0-4.2-0.1-6.2-0.3l-3.1-0.5c-1.5-0.6-3-1.1-4.6-1.4c-0.8-0.1-1.6-0.2-2.5-0.2C62.9,37.6,62.6,37.8,62.5,38L62.5,38z M62.5,38
		"/>
	<path class="st1" d="M76.2,41.4c0,0.6-0.5,1.1-1.1,1.1c-0.6,0-1.1-0.5-1.1-1.1c0-0.6,0.5-1,1.1-1C75.7,40.4,76.2,40.9,76.2,41.4
		L76.2,41.4z M76.2,41.4"/>
	<path d="M76.4,41.4c0,0.5-0.4,1-1,1c-0.5,0-1-0.4-1-1s0.4-1,1-1C75.9,40.4,76.4,40.8,76.4,41.4L76.4,41.4z M76.4,41.4"/>
	<path class="st1" d="M76.1,41.1c0,0.2-0.1,0.3-0.3,0.3c-0.2,0-0.3-0.1-0.3-0.3c0-0.2,0.1-0.3,0.3-0.3
		C75.9,40.8,76.1,40.9,76.1,41.1L76.1,41.1z M76.1,41.1"/>
	<path class="st0" d="M61,56.2c-0.5,0.3-1,0.5-1.5,0.8c-0.4,0.2-1.6,0.3-2.8,0.6c-0.3,0.6-0.9,1-1.5,1.2c-1,0.3-2,0.2-2.1-0.3
		c-0.2-0.5,0.5-1.2,1.5-1.6c0.5-0.2,1-0.2,1.5-0.2c0.1,0,0.3-0.2,0.4-0.2l0.4-0.2c0.3-0.1,0.6-0.2,0.9-0.2c0.7-0.1,1.5-0.1,2.2,0
		C60.4,56.1,60.7,56.1,61,56.2L61,56.2z M61,56.2"/>
	<path class="st0" d="M62,61c-0.4,0.5-2,1.2-3.1,2.4c0.1,0.5,0,0.9-0.2,1.4c-0.4,1-1.3,1.5-1.9,1.3c-0.7-0.2-0.8-1.3-0.4-2.2
		c0.4-0.9,1.2-1.5,1.8-1.3c0.2-0.2,0.3-0.5,0.5-0.8c0.2-0.3,0.4-0.5,0.6-0.8c0.3-0.3,0.7-0.6,1.1-0.8c0.8-0.5,1.8-0.7,2.7-0.7
		C62.8,60,62.4,60.5,62,61L62,61z M62,61"/>
	<path class="st0" d="M64.7,63.9c-0.1,0.2-0.2,0.5-0.2,0.8c0.3,0.5,0.5,1.1,0.4,1.6c0,0.8-0.5,1.5-1.3,1.8h-0.2
		c-0.7-0.1-1.2-1-1.1-2.1c0-0.6,0.3-1.1,0.8-1.5c0-0.5,0.1-1,0.2-1.5c0.2-0.5,0.4-0.9,0.7-1.3c0.3-0.6,0.8-1.1,1.4-1.4
		c0,0.1,0,0.2,0,0.3c0,0.2,0,0.3,0,0.5c0,0.4,0,0.8-0.1,1.2C65.1,62.7,64.9,63.3,64.7,63.9L64.7,63.9z M64.7,63.9"/>
	<path class="st0" d="M63.6,68L63.6,68L63.6,68L63.6,68z M63.6,68"/>
	<path class="st0" d="M69.3,70.3c-0.8-0.4-1.4-1.2-1.4-2.1c-0.1-1-0.7-1.9-1.5-2.5c-1.8,0.3-3.7,0.1-5.4-0.5
		c-0.2,0.5-0.6,0.9-0.9,1.4c-0.5,0.5-0.8,1.2-0.7,1.9c0.1,1.6-0.4,3.1-1.4,4.3c1.4,0.4,2.9,0.6,4.4,0.6c2.9,0.1,5.8-0.6,8.4-1.9
		C70.4,71.1,69.9,70.7,69.3,70.3L69.3,70.3z M69.3,70.3"/>
	<path class="st0" d="M73.7,64.5c-0.8-0.2-1.5-0.7-1.9-1.5l-0.1-0.3c-0.4,0.5-0.8,0.9-1.3,1.3c-0.3-0.5-0.9-0.8-1.5-0.8
		c-0.3-0.8-0.5-1.6-0.6-1.9c-0.3-0.4-0.6-0.9-0.9-1.2c0,0-0.1,0.3-0.1,0.3c0,0-0.1,0.2-0.1,0.3c0,0.2,0,0.4,0,0.6
		c0,0.4,0,0.9,0.1,1.3c0.2,0.5,0.4,1.1,0.8,1.5c-0.1,0.4,0,0.8,0.1,1.2c-0.4,0.2-0.9,0.3-1.3,0.5c0.7,0.6,1.2,1.5,1.3,2.5
		c0.1,0.7,0.5,1.4,1.1,1.8l0.1,0c0.6,0.4,1.1,0.8,1.6,1.4c1.1-0.6,2-1.3,2.9-2.1c0.9-0.9,1.7-2,2.2-3.1
		C75.7,65.2,74.8,64.6,73.7,64.5L73.7,64.5z M73.7,64.5"/>
	<rect x="79.6" y="50.2" class="st2" width="82.8" height="17.2"/>
	<text transform="matrix(1 0 0 1 79.5819 65.851)" class="st3 st4">ambe.ro</text>
	<rect x="160.1" y="42" class="st2" width="28.8" height="10.3"/>
	<text transform="matrix(1 0 0 1 160.0819 50.5423)" class="st5 st3 st6">beta</text>
</g>
</svg>
